<svg width="309" height="993" viewBox="0 0 309 993" fill="none" xmlns="http://www.w3.org/2000/svg">
<path d="M0 13C0 5.82031 5.8203 0 13 0H129C136.18 0 142 5.8203 142 13V136.525C142 143.705 136.18 149.525 129 149.525H13C5.8203 149.525 0 143.705 0 136.525V13Z" fill="#C8E4FF"/>
<path d="M0 350.39C0 343.21 5.8203 337.39 13 337.39H129C136.18 337.39 142 343.21 142 350.39V473.915C142 481.095 136.18 486.915 129 486.915H13C5.8203 486.915 0 481.095 0 473.915V350.39Z" fill="#C8E4FF"/>
<path d="M0 687.78C0 680.6 5.8203 674.78 13 674.78H129C136.18 674.78 142 680.6 142 687.78V811.305C142 818.485 136.18 824.305 129 824.305H13C5.8203 824.305 0 818.485 0 811.305V687.78Z" fill="#C8E4FF"/>
<path d="M0 181.695C0 174.515 5.8203 168.695 13 168.695H129C136.18 168.695 142 174.515 142 181.695V305.22C142 312.4 136.18 318.22 129 318.22H13C5.8203 318.22 0 312.4 0 305.22V181.695Z" fill="#C8E4FF"/>
<path d="M0 519.085C0 511.905 5.8203 506.085 13 506.085H129C136.18 506.085 142 511.905 142 519.085V642.61C142 649.79 136.18 655.61 129 655.61H13C5.8203 655.61 0 649.79 0 642.61V519.085Z" fill="#C8E4FF"/>
<path d="M0 856.475C0 849.295 5.8203 843.475 13 843.475H129C136.18 843.475 142 849.295 142 856.475V980C142 987.18 136.18 993 129 993H13C5.8203 993 0 987.18 0 980V856.475Z" fill="#C8E4FF"/>
<path d="M167 13C167 5.82031 172.82 0 180 0H296C303.18 0 309 5.8203 309 13V136.525C309 143.705 303.18 149.525 296 149.525H180C172.82 149.525 167 143.705 167 136.525V13Z" fill="#C8E4FF"/>
<path d="M167 350.39C167 343.21 172.82 337.39 180 337.39H296C303.18 337.39 309 343.21 309 350.39V473.915C309 481.095 303.18 486.915 296 486.915H180C172.82 486.915 167 481.095 167 473.915V350.39Z" fill="#C8E4FF"/>
<path d="M167 687.78C167 680.6 172.82 674.78 180 674.78H296C303.18 674.78 309 680.6 309 687.78V811.305C309 818.485 303.18 824.305 296 824.305H180C172.82 824.305 167 818.485 167 811.305V687.78Z" fill="#C8E4FF"/>
<path d="M167 181.695C167 174.515 172.82 168.695 180 168.695H296C303.18 168.695 309 174.515 309 181.695V305.22C309 312.4 303.18 318.22 296 318.22H180C172.82 318.22 167 312.4 167 305.22V181.695Z" fill="#C8E4FF"/>
<path d="M167 519.085C167 511.905 172.82 506.085 180 506.085H296C303.18 506.085 309 511.905 309 519.085V642.61C309 649.79 303.18 655.61 296 655.61H180C172.82 655.61 167 649.79 167 642.61V519.085Z" fill="#C8E4FF"/>
<path d="M167 856.475C167 849.295 172.82 843.475 180 843.475H296C303.18 843.475 309 849.295 309 856.475V980C309 987.18 303.18 993 296 993H180C172.82 993 167 987.18 167 980V856.475Z" fill="#C8E4FF"/>
</svg>
