<svg width="64" height="84" viewBox="0 0 64 84" fill="none" xmlns="http://www.w3.org/2000/svg">
<path d="M0 51.1012V7.36C0 4.78376 0 3.49564 0.50137 2.51164C0.942388 1.6461 1.6461 0.942388 2.51164 0.50137C3.49564 0 4.78376 0 7.36 0H56.14C58.7162 0 60.0044 0 60.9884 0.50137C61.8539 0.942388 62.5576 1.6461 62.9986 2.51164C63.5 3.49564 63.5 4.78376 63.5 7.36V51.1012C63.5 52.3512 63.5 52.9762 63.3459 53.5564C63.2094 54.0706 62.9847 54.5572 62.6818 54.9946C62.34 55.4882 61.8642 55.8934 60.9127 56.704L52.5873 63.796C51.6358 64.6066 51.16 65.0118 50.8182 65.5054C50.5153 65.9428 50.2906 66.4294 50.1541 66.9436C50 67.5238 50 68.1488 50 69.3988V76.64C50 79.2162 50 80.5044 49.4986 81.4884C49.0576 82.3539 48.3539 83.0576 47.4884 83.4986C46.5044 84 45.2162 84 42.64 84H20.86C18.2838 84 16.9956 84 16.0116 83.4986C15.1461 83.0576 14.4424 82.3539 14.0014 81.4884C13.5 80.5044 13.5 79.2162 13.5 76.64V69.3988C13.5 68.1488 13.5 67.5238 13.3459 66.9436C13.2094 66.4294 12.9847 65.9428 12.6818 65.5054C12.34 65.0118 11.8642 64.6066 10.9127 63.796L2.58729 56.704C1.63577 55.8934 1.16002 55.4882 0.818217 54.9946C0.515346 54.5572 0.290642 54.0706 0.154096 53.5564C0 52.9762 0 52.3512 0 51.1012Z" fill="#6F6F70"/>
</svg>
